<svg width="53" height="52" viewBox="0 0 53 52" fill="none" xmlns="http://www.w3.org/2000/svg">
<path d="M52.12 29.2754L50.1787 21.708C50.123 21.4855 49.9437 21.3124 49.7212 21.2567L42.2218 19.4082C42.1662 19.3958 42.1044 19.3896 42.0487 19.3896C41.8694 19.3711 41.6839 19.4267 41.5479 19.5627L28.8924 32.2183L27.2169 25.6772C27.1613 25.4546 26.982 25.2815 26.7594 25.2259L20.3173 23.637L32.9666 10.9876C33.0408 10.9134 33.0841 10.8207 33.115 10.7279C33.1707 10.6043 33.1892 10.4621 33.1521 10.3261L31.2108 2.75872C31.1552 2.53615 30.9759 2.36304 30.7533 2.3074L23.254 0.458835C23.1056 0.42174 22.9572 0.44647 22.8274 0.508295H22.8212C22.7841 0.526842 22.7532 0.551573 22.7161 0.576303C22.6852 0.601033 22.6419 0.613397 22.6172 0.64431L1.02795 22.2212C1.02795 22.2212 0.990859 22.283 0.966129 22.3139C0.830114 22.4747 0.780654 22.6849 0.842479 22.8889L2.93834 30.2028C3.00016 30.413 3.16091 30.5737 3.36493 30.6294L10.3882 32.6449L12.4037 39.662C12.4655 39.8722 12.6263 40.0329 12.8303 40.0886L19.8783 42.1102L21.9 49.1583C21.9618 49.3685 22.1226 49.5292 22.3266 49.5849L29.6714 51.6931C29.727 51.7116 29.7889 51.7178 29.8445 51.7178C29.8569 51.7178 29.8692 51.7116 29.8878 51.7116C29.8878 51.7116 29.894 51.7116 29.9001 51.7116C30.0609 51.7116 30.2216 51.6498 30.3453 51.5262L51.9407 29.9307C52.0149 29.8566 52.0581 29.7638 52.0891 29.6711C52.1447 29.5474 52.1632 29.4052 52.1262 29.2692L52.12 29.2754ZM42.4382 37.665L40.8617 31.5135L44.3548 28.0265L50.358 29.7515L42.4444 37.6712L42.4382 37.665ZM30.1907 49.9125L28.6142 43.761L34.9327 37.4425L40.9359 39.1674L30.1907 49.9125ZM35.0625 35.5444L33.554 30.2893L38.976 31.6247L35.0625 35.5383V35.5444ZM39.8354 32.5398L41.2203 37.9371L35.9466 36.4224L39.8354 32.5336V32.5398ZM40.0147 30.5923L33.8693 29.0776L41.7643 21.1825L43.4707 27.1363L40.0147 30.5923ZM32.3422 30.5985L34.0486 36.5522L27.761 42.8398L21.6156 41.3251L32.3422 30.5985ZM49.0596 22.3696L50.6362 28.5211L44.6763 26.8086L42.9699 20.8672L49.0596 22.3696ZM20.6882 40.4101L19.1117 34.2585L21.3869 31.9833L27.3901 33.7082L20.6882 40.4101ZM21.5167 30.0853L20.0082 24.8302L25.4302 26.1656L21.5167 30.0791V30.0853ZM27.6744 32.4841L22.4008 30.9694L26.2896 27.0806L27.6744 32.4779V32.4841ZM20.5089 31.0992L18.2647 33.3435L12.1193 31.8288L18.8026 25.1455L20.5089 31.0992ZM13.4362 11.5811L15.1426 17.5349L8.79933 23.8781L2.65395 22.3634L13.4362 11.5811ZM22.8026 2.21466L24.509 8.16839L21.1087 11.5688L14.9633 10.0541L22.8026 2.21466ZM23.5322 18.6415L21.9556 12.4961L25.3931 9.05867L31.3963 10.7774L23.5322 18.6415ZM16.1565 16.5271L14.648 11.272L20.07 12.6074L16.1565 16.5209V16.5271ZM20.9294 13.5224L22.3142 18.9197L17.0468 17.405L20.9355 13.5162L20.9294 13.5224ZM16.0328 18.419L22.036 20.1377L11.2352 30.9385L9.6587 24.7931L16.0328 18.419ZM30.098 3.41406L31.6745 9.56564L25.7146 7.85309L24.0082 1.91172L30.098 3.41406ZM2.34482 23.5813L7.76686 24.9167L3.85335 28.8303L2.34482 23.5751V23.5813ZM4.73744 29.7205L8.62622 25.8318L10.0111 31.2291L4.74362 29.7144L4.73744 29.7205ZM13.5104 38.9881L11.804 33.0467L17.8938 34.5491L19.4703 40.7006L13.5104 38.9881ZM21.3065 42.543L26.7285 43.8784L22.815 47.7919L21.3065 42.5368V42.543ZM23.6991 48.6822L27.5879 44.7934L28.9728 50.1907L23.6991 48.676V48.6822Z" fill="url(#paint0_linear_5570_4204)"/>
<defs>
<linearGradient id="paint0_linear_5570_4204" x1="4.37267" y1="34.1286" x2="48.8185" y2="17.9491" gradientUnits="userSpaceOnUse">
<stop stop-color="#29BCFA"/>
<stop offset="0.43" stop-color="#6464E4"/>
<stop offset="1" stop-color="#B45AFA"/>
</linearGradient>
</defs>
</svg>
